/* XPM */
static char * disconnected_xpm[] = {
"16 15 82 1",
" 	c None",
".	c #898989",
"+	c #8E8E8E",
"@	c #9A9A9A",
"#	c #6E6E6E",
"$	c #818181",
"%	c #868686",
"&	c #8F8F8F",
"*	c #787878",
"=	c #050505",
"-	c #000000",
";	c #090909",
">	c #131313",
",	c #BFBFBF",
"'	c #7F7F7F",
")	c #070707",
"!	c #F3F3F3",
"~	c #0E0E0E",
"{	c #C9C9C9",
"]	c #0B0B0B",
"^	c #7E7E7E",
"/	c #979797",
"(	c #757575",
"_	c #8A8A8A",
":	c #797979",
"<	c #7A7A7A",
"[	c #636363",
"}	c #FFFFFF",
"|	c #040404",
"1	c #0D0D0D",
"2	c #C6C6C6",
"3	c #848484",
"4	c #0A0A0A",
"5	c #0F0F0F",
"6	c #CECECE",
"7	c #020202",
"8	c #010101",
"9	c #DDDDDD",
"0	c #939393",
"a	c #060606",
"b	c #121212",
"c	c #F8F8F8",
"d	c #080808",
"e	c #101010",
"f	c #C0C0C0",
"g	c #0C0C0C",
"h	c #878787",
"i	c #030303",
"j	c #1A1A1A",
"k	c #CBCBCB",
"l	c #151515",
"m	c #BEBEBE",
"n	c #D6D6D6",
"o	c #B6B6B6",
"p	c #EF0B0B",
"q	c #969696",
"r	c #858585",
"s	c #6F6F6F",
"t	c #949494",
"u	c #7D7D7D",
"v	c #828282",
"w	c #ABABAB",
"x	c #D9D9D9",
"y	c #DEDEDE",
"z	c #B1B1B1",
"A	c #C4C4C4",
"B	c #CDCDCD",
"C	c #A6A6A6",
"D	c #959595",
"E	c #696969",
"F	c #232323",
"G	c #141414",
"H	c #F5F5F5",
"I	c #D1D1D1",
"J	c #C1C1C1",
"K	c #A9A9A9",
"L	c #909090",
"M	c #808080",
"N	c #888888",
"O	c #111111",
"P	c #1B1B1B",
"Q	c #1F1F1F",
"       .+@#$%&  ",
"      *=-;-;>,- ",
"      ')>!-~-{] ",
"  ^/(_:<[}|]12- ",
" 3---]456-78-9; ",
" 0>}-1-a2-b-52- ",
" 3|cd)e)fg:&.,- ",
" h-8ij--klmnom> ",
" h-1)71gpp~-pp5 ",
" q-rst%upppppp'-",
" vwxyzABCppppvDi",
" EF--G-~pppppp- ",
"(HfIJkv%ppp pp  ",
"KL%3M%N:.EO     ",
" -=P-O7giQ      "};
