/* XPM */
static char * litup_xpm[] = {
"16 15 182 2",
"  	c None",
". 	c #8B8C90",
"+ 	c #AB8A9D",
"@ 	c #876679",
"# 	c #8E8B96",
"$ 	c #94A6AA",
"% 	c #667B80",
"& 	c #6F878B",
"* 	c #828C8E",
"= 	c #00020B",
"- 	c #0D000B",
"; 	c #1F1726",
"> 	c #001515",
", 	c #002721",
"' 	c #00140F",
") 	c #AAD2D2",
"! 	c #0E1F26",
"~ 	c #6F7583",
"{ 	c #0C1524",
"] 	c #C3C8DB",
"^ 	c #D9FFFF",
"/ 	c #42B1A0",
"( 	c #6BF4D8",
"_ 	c #74EAD4",
": 	c #9BE7DD",
"< 	c #00020C",
"[ 	c #8E9DA0",
"} 	c #648284",
"| 	c #668188",
"1 	c #7E9AA5",
"2 	c #7794A2",
"3 	c #607D8F",
"4 	c #5F7C8E",
"5 	c #B0F5FA",
"6 	c #63F9E0",
"7 	c #2CDFB8",
"8 	c #3BD4B5",
"9 	c #81E3D4",
"0 	c #000710",
"a 	c #987D90",
"b 	c #00080C",
"c 	c #064240",
"d 	c #002826",
"e 	c #00191C",
"f 	c #003A41",
"g 	c #002D3D",
"h 	c #ACDFF4",
"i 	c #00333C",
"j 	c #3DD6C2",
"k 	c #47FBD8",
"l 	c #4FECCD",
"m 	c #88F3E1",
"n 	c #001116",
"o 	c #977E93",
"p 	c #001417",
"q 	c #B8FFFF",
"r 	c #75E7DD",
"s 	c #4CCBC4",
"t 	c #58D3D1",
"u 	c #69D0D7",
"v 	c #92D3E7",
"w 	c #003544",
"x 	c #5BD8D0",
"y 	c #45D7C2",
"z 	c #5FE0CA",
"A 	c #80DDCB",
"B 	c #000F0E",
"C 	c #887D8B",
"D 	c #000E0E",
"E 	c #A4FFFC",
"F 	c #56E0D0",
"G 	c #40E1CF",
"H 	c #3DE2D4",
"I 	c #62E7E6",
"J 	c #94D8ED",
"K 	c #000B23",
"L 	c #5FA1AD",
"M 	c #5AA4A5",
"N 	c #377C77",
"O 	c #B1E9E0",
"P 	c #000B04",
"Q 	c #879095",
"R 	c #001E1A",
"S 	c #77D3C8",
"T 	c #52D5C5",
"U 	c #58F3E1",
"V 	c #43EAD9",
"W 	c #48D0CC",
"X 	c #9CDBED",
"Y 	c #000520",
"Z 	c #B1CAE0",
"` 	c #B1C7D5",
" .	c #D5EAEF",
"..	c #A8BEBB",
"+.	c #001208",
"@.	c #72938A",
"#.	c #000F07",
"$.	c #96D7CF",
"%.	c #6FC6BE",
"&.	c #66D5CC",
"*.	c #45C9BC",
"=.	c #74E5E1",
"-.	c #90BFCF",
";.	c #252F48",
">.	c #000013",
",.	c #03000C",
"'.	c #150A12",
").	c #140C0A",
"!.	c #000200",
"~.	c #5F8578",
"{.	c #001B14",
"].	c #486F6A",
"^.	c #639594",
"/.	c #5EA3A0",
"(.	c #50ADA5",
"_.	c #3E8D8A",
":.	c #BDD4E4",
"<.	c #0B031A",
"[.	c #CABDCF",
"}.	c #998793",
"|.	c #8B767B",
"1.	c #C4B2B0",
"2.	c #B2AA9F",
"3.	c #030100",
"4.	c #698174",
"5.	c #C9DAD4",
"6.	c #CEDCDC",
"7.	c #B9C7CA",
"8.	c #B8D1D5",
"9.	c #9BC9C7",
"0.	c #B4D7D9",
"a.	c #C4BBCC",
"b.	c #31182B",
"c.	c #756872",
"d.	c #8B8285",
"e.	c #877D7B",
"f.	c #9D948D",
"g.	c #716B5F",
"h.	c #040100",
"i.	c #878E87",
"j.	c #010300",
"k.	c #010000",
"l.	c #010002",
"m.	c #0B0F12",
"n.	c #011715",
"o.	c #000305",
"p.	c #130005",
"q.	c #190002",
"r.	c #100106",
"s.	c #0F0E0A",
"t.	c #040500",
"u.	c #17170B",
"v.	c #A09194",
"w.	c #FFF8FA",
"x.	c #C1B8B9",
"y.	c #CFCBCA",
"z.	c #C9C5C4",
"A.	c #BFC4C0",
"B.	c #7A8B83",
"C.	c #7B7D7A",
"D.	c #F6D0DB",
"E.	c #9C6E79",
"F.	c #140103",
"G.	c #9D8992",
"H.	c #72636A",
"I.	c #A69B9F",
"J.	c #928C8C",
"K.	c #706C69",
"L.	c #979C95",
"M.	c #66786C",
"N.	c #8F958B",
"O.	c #8A676B",
"P.	c #A47B83",
"Q.	c #180A09",
"R.	c #0A080D",
"S.	c #040002",
"T.	c #130D0F",
"U.	c #040000",
"V.	c #0C2714",
"W.	c #000700",
"X.	c #1F0C08",
"Y.	c #180000",
"              . + @ # $ % &     ",
"            * = - ; > , ' ) !   ",
"            ~ { ] ^ / ( _ : <   ",
"    [ } | 1 2 3 4 5 6 7 8 9 0   ",
"  a b c d e f g h i j k l m n   ",
"  o p q r s t u v w x y z A B   ",
"  C D E F G H I J K L M N O P   ",
"  Q R S T U V W X Y Z `  ...+.  ",
"  @.#.$.%.&.*.=.-.;.>.,.'.).!.  ",
"  ~.{.].^./.(._.:.<.[.}.|.1.2.3.",
"  4.5.6.7.8.9.0.a.b.c.d.e.f.g.h.",
"  i.j.k.l.m.n.o.p.q.r.s.t.!.u.  ",
"v.w.x.y.z.A.B.C.D.E.F.          ",
"G.H.I.J.K.L.M.N.O.P.Q.          ",
"  R.S.T.U.!.V.W.X.Y.            "};
