/* XPM */
static char *logo_qvwm11[] = {
/* width height num_colors chars_per_pixel */
"    21   107        3            1",
/* colors */
". c #000078",
"# c #0000f8",
"a c #f8fcf8",
/* pixels */
".....................",
".....................",
".....................",
".....................",
".....................",
".....................",
".....................",
".....................",
"...aaaaaaaaaaaaaa....",
"...aaaaaaaaaaaaaa....",
".....aa..............",
"......aa.............",
".....#aa..#..#.......",
".....................",
".....................",
"...#..#..#...#..#....",
".....................",
".#..#...#..#...aa.#..",
"...............aa....",
"..#.#....#.#....#.#..",
"#..#...#..#...#..#...",
"....#.#....#.#....#.#",
".#...#..#...#..#...#.",
"..#.#....#.#....#.#..",
"#....#.#....#.#....#.",
"..#aaaaaaaaaaaaaa.#..",
".#.aaaaaaaaaaaaaa...#",
"..#.#aa..#.#....#.#..",
"#..#..aa..#..##..#..#",
"..#..#aa.#..##..#..##",
"#.#.#.##.#.#.##.#.#.#",
".#.#.#..#.#.#..#.#.#.",
"#.#.#..#.#.#..#.#.#..",
".#..#.#.#..#.#.#..#.#",
"#.##.#.#.##.#.#.##.#.",
".#..#.#.#..#.#.#..#.#",
"#.##.#.#.##.#.#.##.#.",
".#.#.#..#.#.#..#.#.#.",
"#.#.#.##.#.#.##.#.#.#",
"#.##.#.#.##.#.#.##.#.",
".##.###.aaaaaaaaa.###",
"##.##.aaaaaaaaaaa##.#",
"#.#.##aaaaaaaaaaa.##.",
"####.#aaaaaaaaaaa#.##",
".#.##.aaa.##.#.#.##.#",
"#.##.##aa##.###.##.##",
"###.##.aaaaaaaaaa.##.",
"#.####aaaaaaaaaaa####",
"###.#.aaaaaaaaaaa.#.#",
"#.####aaaaaaaaaaa####",
"###.##aaa#.######.###",
"#####.aaa###.######.#",
"#.#####aaa#####.#####",
"###.##aaaaaaaaaaa.###",
"######aaaaaaaaaaa####",
".#####aaaaaaaaaaa###.",
"######aaaaaaaaaaa####",
"#####################",
"######aa#############",
"######aaaaa##########",
"######aaaaaaaa#######",
"######aaaaaaaaaaa####",
"#######aaaaaaaaaa####",
"###########aaaaaa####",
"#######aaaaaaaaa#####",
"######aaaaaaa########",
"######aaaa###########",
"######aaaaaaa########",
"#######aaaaaaaaa#####",
"###########aaaaaa####",
"#######aaaaaaaaaa####",
"######aaaaaaaaaaa####",
"######aaaaaaaa#######",
"######aaaaa##########",
"######aa#############",
".###################.",
"######a##############",
"##.###aaaa########.##",
"######aaaaaaa##.#####",
".#####aaaaaaaaaa####.",
"##.##.##aaaaaaaaa.###",
"#############aaaa####",
".##.##.#aaaaaaaaa#.##",
"######aaaaaaaaaa####.",
"#.###.aaaaaaa.###.###",
".###.#aaaa#..###.####",
"##.###a###.###.###..#",
".###.###.###.###a####",
"#.#.#.#aaaaaa.#aaa#.#",
".#.#.aaaaaaaaaaaaa.##",
"###.aaaaaaaaaaaaa###.",
".#.#aaaaaaaaaaaa.#.##",
"#.#aaaa.#.#.#aaaa.#.#",
".#.aaa.#.#.#aaaaa#.#.",
"#.#aaa#.#.#aa.aaa.#.#",
".#.aaa.#.#.#.aaaa#.#.",
"#.#aaaa.#.#.#aaaa.#.#",
".#.#aaaaaaaaaaaa.#..#",
"..#.aaaaaaaaaaaa..##.",
"#..##aaaaaaaaaa##..##",
"..#...#aaaaaa.#...#..",
".#.#.#...#...#...#..#",
"...#.......#.......#.",
"#...#.#.#.#..#.#.#..#",
"..#......#..#...#..#.",
".#..#.#.#..#.#.#.#.#.",
"...#......#.......#.."
};
